<svg xmlns="http://www.w3.org/2000/svg" width="256" height="256" viewBox="0 0 100 100"><path fill="#fff" d="M33.17 64.94L33.17 64.94Q37.19 64.94 39.26 63.11Q41.33 61.28 41.33 58.40L41.33 58.40Q41.33 55.88 39.74 54.32Q38.15 52.76 34.73 51.74L34.73 51.74L29.51 50.18Q25.67 49.04 23.48 46.82Q21.29 44.60 21.29 40.82L21.29 40.82Q21.29 38.54 22.16 36.71Q23.03 34.88 24.65 33.62Q26.27 32.36 28.52 31.67Q30.77 30.98 33.59 30.98L33.59 30.98Q35.99 30.98 38.06 31.37Q40.13 31.76 41.66 32.45Q43.19 33.14 44.03 33.98Q44.87 34.82 44.87 35.72L44.87 35.72Q44.87 36.56 44.45 37.16Q44.03 37.76 43.37 38.12L43.37 38.12Q41.81 36.92 39.32 36.02Q36.83 35.12 33.77 35.12L33.77 35.12Q30.23 35.12 28.22 36.62Q26.21 38.12 26.21 40.82L26.21 40.82Q26.21 42.92 27.65 44.24Q29.09 45.56 32.45 46.52L32.45 46.52L36.11 47.60Q40.85 48.98 43.58 51.47Q46.31 53.96 46.31 58.40L46.31 58.40Q46.31 63.14 42.89 66.08Q39.47 69.02 33.17 69.02L33.17 69.02Q30.41 69.02 28.16 68.54Q25.91 68.06 24.32 67.28Q22.73 66.50 21.86 65.57Q20.99 64.64 20.99 63.74L20.99 63.74Q20.99 62.72 21.62 62.03Q22.25 61.34 23.09 61.04L23.09 61.04Q23.75 61.70 24.71 62.39Q25.67 63.08 26.93 63.65Q28.19 64.22 29.75 64.58Q31.31 64.94 33.17 64.94ZM77.15 35.90L67.25 35.90L67.25 68.12Q66.95 68.24 66.32 68.39Q65.69 68.54 65.03 68.54L65.03 68.54Q62.39 68.54 62.39 66.32L62.39 66.32L62.39 35.90L51.17 35.90Q50.99 35.60 50.81 35.09Q50.63 34.58 50.63 33.92L50.63 33.92Q50.63 32.90 51.11 32.33Q51.59 31.76 52.49 31.76L52.49 31.76L78.47 31.76Q78.65 32.06 78.83 32.57Q79.01 33.08 79.01 33.68L79.01 33.68Q79.01 34.70 78.53 35.30Q78.05 35.90 77.15 35.90L77.15 35.90Z"></path></svg>